<svg data-name="Layer 1" xmlns="http://www.w3.org/2000/svg" viewBox="0 0 798.42 133.01">
    <defs>
        <style>
            .cls-1-stroke{
                stroke: rgb(187, 187, 190);
                stroke-width: 2px;
                fill: none;
                animation: strokeUp 1s ease-in-out both, fadeInOut 1s ease-in-out both;
            }
            .cls-1-fill{
                fill: rgb(187, 187, 190);
                stroke: none;
            }
            #Layer1{
                animation: strokeRight 1s ease-in-out 0.5s both;
            }
            .cls-2-fill
            {
                fill: #f36d21;
                stroke: none;
                animation: fadeIn 0.2s ease-in-out 1.5s both;
            }
            @keyframes strokeUp{
                0%{
                    clip-path: polygon(0% 100%, 100% 100%, 100% 100%, 0% 100%);
                }
                100%{
                    clip-path: polygon(0% 100%, 100% 100%, 100% 0%, 0% 0%);
                }
            }
            @keyframes fadeInOut{
                0%{
                    opacity: 0;
                }
                75%{
                    opacity: 1;
                }
                100%{
                    opacity: 0;
                }
            }
            @keyframes strokeRight{
                0%{
                    clip-path: polygon(0% 0%, 0% 0%, 0% 100%, 0% 100%);
                }
                100%{
                    clip-path: polygon(0% 0%, 100% 0%, 100% 100%, 0% 100%);
                }
            }
            @keyframes fadeIn{
                0%{
                    opacity: 0;
                }
                100%{
                    opacity: 1;
                }
            }
        </style>
    </defs>
    
    <g id="Layer2">
        <path class="cls-1-stroke" d="M132.52,176.69a51.83,51.83,0,0,1-29.65-9.48V156.64q14.89,11.48,29.93,11.48,10,0,16.15-4.61t6.15-11.25q0-5-4.38-9.22a33.53,33.53,0,0,0-8.1-6q-3.7-1.8-11.46-5l-1.56-.65q-7.08-2.9-11-4.77a50.09,50.09,0,0,1-8-4.83,17.7,17.7,0,0,1-5.78-6.64,19.84,19.84,0,0,1-1.74-8.57q0-11.22,8.71-17.7T134,82.71a48.42,48.42,0,0,1,25.17,7.42v10.44a37.85,37.85,0,0,0-25-9.28q-9.45,0-15.47,3.9t-6.43,10.47a9.51,9.51,0,0,0,.2,3,19.58,19.58,0,0,0,.79,2.51,7.4,7.4,0,0,0,1.46,2.26l1.73,1.9a10.79,10.79,0,0,0,2.45,1.77l2.65,1.52c.61.34,1.66.84,3.13,1.51s2.52,1.11,3.13,1.32,1.78.68,3.5,1.39,2.86,1.15,3.4,1.32q6.81,2.64,11.19,4.83a66.42,66.42,0,0,1,9.05,5.55,22.76,22.76,0,0,1,7,7.7,20.47,20.47,0,0,1,2.31,9.76,21.67,21.67,0,0,1-8.77,17.76Q146.61,176.69,132.52,176.69Z" transform="translate(-102.87 -82.33)"/>
        <path class="cls-1-stroke" d="M229.84,176.82q-19.59,0-32.61-13.86t-13-33.65q0-19.65,13-33.32t32.68-13.66q19.71,0,32.67,13.73t13,33.25q0,19.8-13.16,33.65A43,43,0,0,1,229.84,176.82Zm-26.08-20a35.35,35.35,0,0,0,52.12-.13,39.07,39.07,0,0,0,10.64-27.4A38.5,38.5,0,0,0,256,102.24a35.94,35.94,0,0,0-52.4,0,38.71,38.71,0,0,0-10.46,27.2A38.83,38.83,0,0,0,203.76,156.84Z" transform="translate(-102.87 -82.33)"/>
        <path class="cls-1-stroke" d="M364,176,307.42,99h-.27v77h-9v-92h9.19L364,161.15h.27V83.94h9V176Z" transform="translate(-102.87 -82.33)"/>
        <path class="cls-1-stroke" d="M397.14,175.91V83.1h10.58v92.81Z" transform="translate(-102.87 -82.33)"/>
        <path class="cls-1-stroke" d="M481.54,176.82q-20.48,0-34.67-13.8a44.87,44.87,0,0,1-14.2-33.45,44.9,44.9,0,0,1,14.2-33.45q14.2-13.78,34.67-13.79a52.81,52.81,0,0,1,29.33,8.83v11q-13-11.22-28.93-11.22-16.94,0-28.67,11.15a36.46,36.46,0,0,0-11.73,27.52,36.45,36.45,0,0,0,11.73,27.52q11.73,11.16,28.67,11.15,16,0,28.93-11.21v11A52.89,52.89,0,0,1,481.54,176.82Z" transform="translate(-102.87 -82.33)"/>
        <path class="cls-1-stroke" d="M552.88,175.91,520.34,82.46h21l19.54,60.45h.28l20.71-60.45H603l20.71,60.45H624L643.5,82.46h21.06l-32.62,93.45H616.19l-23.54-63.74h-.27l-23.67,63.74Z" transform="translate(-102.87 -82.33)"/>
        <path class="cls-1-stroke" d="M712.71,82.46H698l-35.26,93.45h18.88l11.64-32.22,11.89-32.49h.26L729,175.91H747.9Z" transform="translate(-102.87 -82.33)"/>
        <path class="cls-1-stroke" d="M769.39,175.91V82.46H788v75.79h41.57v17.66Z" transform="translate(-102.87 -82.33)"/>
        <path class="cls-1-stroke" d="M841.16,175.91V82.46h18.56v75.79H901.3v17.66Z" transform="translate(-102.87 -82.33)"/>
    </g>

    <g id="Layer1">
        <path class="cls-1-fill" d="M132.52,176.69a51.83,51.83,0,0,1-29.65-9.48V156.64q14.89,11.48,29.93,11.48,10,0,16.15-4.61t6.15-11.25q0-5-4.38-9.22a33.53,33.53,0,0,0-8.1-6q-3.7-1.8-11.46-5l-1.56-.65q-7.08-2.9-11-4.77a50.09,50.09,0,0,1-8-4.83,17.7,17.7,0,0,1-5.78-6.64,19.84,19.84,0,0,1-1.74-8.57q0-11.22,8.71-17.7T134,82.71a48.42,48.42,0,0,1,25.17,7.42v10.44a37.85,37.85,0,0,0-25-9.28q-9.45,0-15.47,3.9t-6.43,10.47a9.51,9.51,0,0,0,.2,3,19.58,19.58,0,0,0,.79,2.51,7.4,7.4,0,0,0,1.46,2.26l1.73,1.9a10.79,10.79,0,0,0,2.45,1.77l2.65,1.52c.61.34,1.66.84,3.13,1.51s2.52,1.11,3.13,1.32,1.78.68,3.5,1.39,2.86,1.15,3.4,1.32q6.81,2.64,11.19,4.83a66.42,66.42,0,0,1,9.05,5.55,22.76,22.76,0,0,1,7,7.7,20.47,20.47,0,0,1,2.31,9.76,21.67,21.67,0,0,1-8.77,17.76Q146.61,176.69,132.52,176.69Z" transform="translate(-102.87 -82.33)"/>
        <path class="cls-1-fill" d="M229.84,176.82q-19.59,0-32.61-13.86t-13-33.65q0-19.65,13-33.32t32.68-13.66q19.71,0,32.67,13.73t13,33.25q0,19.8-13.16,33.65A43,43,0,0,1,229.84,176.82Zm-26.08-20a35.35,35.35,0,0,0,52.12-.13,39.07,39.07,0,0,0,10.64-27.4A38.5,38.5,0,0,0,256,102.24a35.94,35.94,0,0,0-52.4,0,38.71,38.71,0,0,0-10.46,27.2A38.83,38.83,0,0,0,203.76,156.84Z" transform="translate(-102.87 -82.33)"/>
        <path class="cls-1-fill" d="M364,176,307.42,99h-.27v77h-9v-92h9.19L364,161.15h.27V83.94h9V176Z" transform="translate(-102.87 -82.33)"/>
        <path class="cls-1-fill" d="M397.14,175.91V83.1h10.58v92.81Z" transform="translate(-102.87 -82.33)"/>
        <path class="cls-1-fill" d="M481.54,176.82q-20.48,0-34.67-13.8a44.87,44.87,0,0,1-14.2-33.45,44.9,44.9,0,0,1,14.2-33.45q14.2-13.78,34.67-13.79a52.81,52.81,0,0,1,29.33,8.83v11q-13-11.22-28.93-11.22-16.94,0-28.67,11.15a36.46,36.46,0,0,0-11.73,27.52,36.45,36.45,0,0,0,11.73,27.52q11.73,11.16,28.67,11.15,16,0,28.93-11.21v11A52.89,52.89,0,0,1,481.54,176.82Z" transform="translate(-102.87 -82.33)"/>
        <path class="cls-1-fill" d="M552.88,175.91,520.34,82.46h21l19.54,60.45h.28l20.71-60.45H603l20.71,60.45H624L643.5,82.46h21.06l-32.62,93.45H616.19l-23.54-63.74h-.27l-23.67,63.74Z" transform="translate(-102.87 -82.33)"/>
        <path class="cls-1-fill" d="M712.71,82.46H698l-35.26,93.45h18.88l11.64-32.22,11.89-32.49h.26L729,175.91H747.9Z" transform="translate(-102.87 -82.33)"/>
        <path class="cls-1-fill" d="M769.39,175.91V82.46H788v75.79h41.57v17.66Z" transform="translate(-102.87 -82.33)"/>
        <path class="cls-1-fill" d="M841.16,175.91V82.46h18.56v75.79H901.3v17.66Z" transform="translate(-102.87 -82.33)"/>
        <path class="cls-2-fill" d="M762.49,144.23s-90.77,13.15-90.77,37.66c0,17.88,25.54,33.45,25.54,33.45s-53.11-18.89-53.11-49.91S711.94,139.13,762.49,144.23Z" transform="translate(-102.87 -82.33)"/>
    </g>
</svg>